ffmpeg started on 2026-04-09 at 15:06:37
Report written to "D:\Convert\FFMetrics\reports\psnr_report-6.txt"
Log level: 32
Command line:
ffmpeg -hide_banner -nostdin -r 24000/1001 -i "F:\\Convert\\files\\[DC] Make Heroine ga Oosugiru - 07_Telegram_HEVC(315).mkv" -r 24000/1001 -i "F:\\Convert\\files\\[DC] Make Heroine ga Oosugiru - 07_Telegram.mp4" -lavfi "[0:v]settb=AVTB,setpts=PTS-STARTPTS,format=pix_fmts=yuv420p10le,fps=24000/1001,scale=1920:1080:flags=lanczos:param0=3:out_range=limited:out_color_matrix=bt709:out_chroma_loc=left,setsar=1/1,setdar=(1920/1080)*(1/1),colorspace=format=yuv420p10:range=tv:primaries=bt709:trc=bt709:space=bt709:fast=0[main];[1:v]settb=AVTB,setpts=PTS-STARTPTS,format=pix_fmts=yuv420p,fps=24000/1001,scale=1920:1080:flags=lanczos:param0=3:out_range=limited:out_color_matrix=bt709:out_chroma_loc=left,setsar=1/1,setdar=(1920/1080)*(1/1),colorspace=format=yuv420p:range=tv:primaries=bt709:trc=bt709:space=bt709:fast=0[ref];[main][ref]psnr=eof_action=endall:stats_file='D\\:/Convert/FFMetrics/logs/psnr_logfile-6.txt'" -f null -
Input #0, matroska,webm, from 'F:\Convert\files\[DC] Make Heroine ga Oosugiru - 07_Telegram_HEVC(315).mkv':
  Metadata:
    COMPATIBLE_BRANDS: isomiso2avc1mp41
    MAJOR_BRAND     : isom
    MINOR_VERSION   : 512
    ENCODER         : Lavf61.7.100
  Duration: 00:24:06.79, start: -0.021000, bitrate: 987 kb/s
  Stream #0:0: Video: hevc (Main 10), yuv420p10le(tv, bt709, progressive), 1920x1080 [SAR 1:1 DAR 16:9], 23.98 fps, 23.98 tbr, 1k tbn (default)
      Metadata:
        HANDLER_NAME    : VideoHandler
        VENDOR_ID       : [0][0][0][0]
        ENCODER         : Lavc61.19.100 libx265
        BPS             : 790555
        DURATION        : 00:24:06.569708333
        NUMBER_OF_FRAMES: 34683
        NUMBER_OF_BYTES : 142949126
        _STATISTICS_WRITING_APP: mkvpropedit v94.0 ('Initiate') 64-bit
        _STATISTICS_WRITING_DATE_UTC: 2026-04-09 09:21:12
        _STATISTICS_TAGS: BPS DURATION NUMBER_OF_FRAMES NUMBER_OF_BYTES
  Stream #0:1: Audio: aac (LC), 48000 Hz, stereo, fltp (default)
      Metadata:
        HANDLER_NAME    : SoundHandler
        VENDOR_ID       : [0][0][0][0]
        ENCODER         : Lavc61.19.100 aac
        BPS             : 193194
        DURATION        : 00:24:06.784000000
        NUMBER_OF_FRAMES: 67819
        NUMBER_OF_BYTES : 34938755
        _STATISTICS_WRITING_APP: mkvpropedit v94.0 ('Initiate') 64-bit
        _STATISTICS_WRITING_DATE_UTC: 2026-04-09 09:21:12
        _STATISTICS_TAGS: BPS DURATION NUMBER_OF_FRAMES NUMBER_OF_BYTES
Input #1, mov,mp4,m4a,3gp,3g2,mj2, from 'F:\Convert\files\[DC] Make Heroine ga Oosugiru - 07_Telegram.mp4':
  Metadata:
    major_brand     : isom
    minor_version   : 512
    compatible_brands: isomiso2avc1mp41
    encoder         : Lavf60.16.100
  Duration: 00:24:06.74, start: 0.000000, bitrate: 3764 kb/s
  Stream #1:0[0x1](und): Video: h264 (High) (avc1 / 0x31637661), yuv420p(tv, bt709, progressive), 1920x1080 [SAR 1:1 DAR 16:9], 3616 kb/s, 23.98 fps, 23.98 tbr, 24k tbn (default)
      Metadata:
        handler_name    : VideoHandler
        vendor_id       : [0][0][0][0]
        encoder         : Lavc60.31.102 h264_qsv
  Stream #1:1[0x2](und): Audio: aac (HE-AACv2) (mp4a / 0x6134706D), 48000 Hz, stereo, fltp, 144 kb/s (default)
      Metadata:
        handler_name    : SoundHandler
        vendor_id       : [0][0][0][0]
Stream mapping:
  Stream #0:0 (hevc) -> settb:default
  Stream #1:0 (h264) -> settb:default
  psnr:default -> Stream #0:0 (wrapped_avframe)
  Stream #0:1 -> #0:1 (aac (native) -> pcm_s16le (native))
Output #0, null, to 'pipe:':
  Metadata:
    COMPATIBLE_BRANDS: isomiso2avc1mp41
    MAJOR_BRAND     : isom
    MINOR_VERSION   : 512
    encoder         : Lavf61.7.100
  Stream #0:0: Video: wrapped_avframe, yuv420p10le(tv, bt709, progressive), 1920x1080 [SAR 1:1 DAR 16:9], q=2-31, 200 kb/s, 23.98 fps, 23.98 tbn
      Metadata:
        encoder         : Lavc61.19.100 wrapped_avframe
  Stream #0:1: Audio: pcm_s16le, 48000 Hz, stereo, s16, 1536 kb/s (default)
      Metadata:
        HANDLER_NAME    : SoundHandler
        VENDOR_ID       : [0][0][0][0]
        _STATISTICS_TAGS: BPS DURATION NUMBER_OF_FRAMES NUMBER_OF_BYTES
        BPS             : 193194
        DURATION        : 00:24:06.784000000
        NUMBER_OF_FRAMES: 67819
        NUMBER_OF_BYTES : 34938755
        _STATISTICS_WRITING_APP: mkvpropedit v94.0 ('Initiate') 64-bit
        _STATISTICS_WRITING_DATE_UTC: 2026-04-09 09:21:12
        encoder         : Lavc61.19.100 pcm_s16le
frame=  123 fps=0.0 q=-0.0 size=N/A time=00:00:05.13 bitrate=N/A speed=9.94x    frame=  319 fps=311 q=-0.0 size=N/A time=00:00:13.30 bitrate=N/A speed=  13x    frame=  516 fps=332 q=-0.0 size=N/A time=00:00:21.52 bitrate=N/A speed=13.8x    frame=  717 fps=347 q=-0.0 size=N/A time=00:00:29.90 bitrate=N/A speed=14.5x    frame=  891 fps=346 q=-0.0 size=N/A time=00:00:37.16 bitrate=N/A speed=14.4x    frame= 1036 fps=334 q=-0.0 size=N/A time=00:00:43.20 bitrate=N/A speed=13.9x    frame= 1196 fps=331 q=-0.0 size=N/A time=00:00:49.88 bitrate=N/A speed=13.8x    frame= 1352 fps=328 q=-0.0 size=N/A time=00:00:56.38 bitrate=N/A speed=13.7x    frame= 1508 fps=325 q=-0.0 size=N/A time=00:01:02.89 bitrate=N/A speed=13.6x    frame= 1646 fps=319 q=-0.0 size=N/A time=00:01:08.65 bitrate=N/A speed=13.3x    frame= 1805 fps=318 q=-0.0 size=N/A time=00:01:15.28 bitrate=N/A speed=13.3x    frame= 1958 fps=316 q=-0.0 size=N/A time=00:01:21.66 bitrate=N/A speed=13.2x    frame= 2082 fps=311 q=-0.0 size=N/A time=00:01:26.83 bitrate=N/A speed=  13x    frame= 2222 fps=308 q=-0.0 size=N/A time=00:01:32.67 bitrate=N/A speed=12.8x    frame= 2365 fps=306 q=-0.0 size=N/A time=00:01:38.64 bitrate=N/A speed=12.8x    frame= 2491 fps=302 q=-0.0 size=N/A time=00:01:43.89 bitrate=N/A speed=12.6x    frame= 2650 fps=302 q=-0.0 size=N/A time=00:01:50.52 bitrate=N/A speed=12.6x    frame= 2821 fps=304 q=-0.0 size=N/A time=00:01:57.65 bitrate=N/A speed=12.7x    frame= 2988 fps=305 q=-0.0 size=N/A time=00:02:04.62 bitrate=N/A speed=12.7x    frame= 3178 fps=308 q=-0.0 size=N/A time=00:02:12.54 bitrate=N/A speed=12.9x    frame= 3374 fps=311 q=-0.0 size=N/A time=00:02:20.72 bitrate=N/A speed=  13x    frame= 3565 fps=314 q=-0.0 size=N/A time=00:02:28.69 bitrate=N/A speed=13.1x    frame= 3752 fps=316 q=-0.0 size=N/A time=00:02:36.48 bitrate=N/A speed=13.2x    frame= 3941 fps=319 q=-0.0 size=N/A time=00:02:44.37 bitrate=N/A speed=13.3x    frame= 4131 fps=320 q=-0.0 size=N/A time=00:02:52.29 bitrate=N/A speed=13.4x    frame= 4312 fps=322 q=-0.0 size=N/A time=00:02:59.84 bitrate=N/A speed=13.4x    frame= 4496 fps=323 q=-0.0 size=N/A time=00:03:07.52 bitrate=N/A speed=13.5x    frame= 4683 fps=324 q=-0.0 size=N/A time=00:03:15.32 bitrate=N/A speed=13.5x    frame= 4860 fps=325 q=-0.0 size=N/A time=00:03:22.70 bitrate=N/A speed=13.5x    frame= 5012 fps=324 q=-0.0 size=N/A time=00:03:29.04 bitrate=N/A speed=13.5x    frame= 5197 fps=325 q=-0.0 size=N/A time=00:03:36.75 bitrate=N/A speed=13.6x    frame= 5374 fps=325 q=-0.0 size=N/A time=00:03:44.14 bitrate=N/A speed=13.6x    frame= 5541 fps=326 q=-0.0 size=N/A time=00:03:51.10 bitrate=N/A speed=13.6x    frame= 5720 fps=326 q=-0.0 size=N/A time=00:03:58.57 bitrate=N/A speed=13.6x    frame= 5907 fps=327 q=-0.0 size=N/A time=00:04:06.37 bitrate=N/A speed=13.6x    frame= 6079 fps=327 q=-0.0 size=N/A time=00:04:13.54 bitrate=N/A speed=13.7x    frame= 6258 fps=328 q=-0.0 size=N/A time=00:04:21.01 bitrate=N/A speed=13.7x    frame= 6443 fps=329 q=-0.0 size=N/A time=00:04:28.72 bitrate=N/A speed=13.7x    frame= 6628 fps=329 q=-0.0 size=N/A time=00:04:36.44 bitrate=N/A speed=13.7x    frame= 6818 fps=331 q=-0.0 size=N/A time=00:04:44.36 bitrate=N/A speed=13.8x    frame= 7002 fps=331 q=-0.0 size=N/A time=00:04:52.04 bitrate=N/A speed=13.8x    frame= 7169 fps=331 q=-0.0 size=N/A time=00:04:59.00 bitrate=N/A speed=13.8x    frame= 7346 fps=331 q=-0.0 size=N/A time=00:05:06.38 bitrate=N/A speed=13.8x    frame= 7521 fps=331 q=-0.0 size=N/A time=00:05:13.68 bitrate=N/A speed=13.8x    frame= 7677 fps=331 q=-0.0 size=N/A time=00:05:20.19 bitrate=N/A speed=13.8x    frame= 7840 fps=330 q=-0.0 size=N/A time=00:05:26.99 bitrate=N/A speed=13.8x    frame= 8014 fps=330 q=-0.0 size=N/A time=00:05:34.25 bitrate=N/A speed=13.8x    frame= 8199 fps=331 q=-0.0 size=N/A time=00:05:41.96 bitrate=N/A speed=13.8x    frame= 8374 fps=331 q=-0.0 size=N/A time=00:05:49.26 bitrate=N/A speed=13.8x    frame= 8546 fps=331 q=-0.0 size=N/A time=00:05:56.43 bitrate=N/A speed=13.8x    frame= 8712 fps=331 q=-0.0 size=N/A time=00:06:03.36 bitrate=N/A speed=13.8x    frame= 8884 fps=331 q=-0.0 size=N/A time=00:06:10.53 bitrate=N/A speed=13.8x    frame= 9073 fps=332 q=-0.0 size=N/A time=00:06:18.41 bitrate=N/A speed=13.8x    frame= 9263 fps=332 q=-0.0 size=N/A time=00:06:26.34 bitrate=N/A speed=13.9x    frame= 9435 fps=333 q=-0.0 size=N/A time=00:06:33.51 bitrate=N/A speed=13.9x    frame= 9621 fps=333 q=-0.0 size=N/A time=00:06:41.27 bitrate=N/A speed=13.9x    frame= 9800 fps=333 q=-0.0 size=N/A time=00:06:48.74 bitrate=N/A speed=13.9x    frame= 9988 fps=334 q=-0.0 size=N/A time=00:06:56.58 bitrate=N/A speed=13.9x    frame=10161 fps=334 q=-0.0 size=N/A time=00:07:03.79 bitrate=N/A speed=13.9x    frame=10345 fps=334 q=-0.0 size=N/A time=00:07:11.47 bitrate=N/A speed=13.9x    frame=10526 fps=334 q=-0.0 size=N/A time=00:07:19.02 bitrate=N/A speed=13.9x    frame=10703 fps=335 q=-0.0 size=N/A time=00:07:26.40 bitrate=N/A speed=  14x    frame=10882 fps=335 q=-0.0 size=N/A time=00:07:33.87 bitrate=N/A speed=  14x    frame=11063 fps=335 q=-0.0 size=N/A time=00:07:41.41 bitrate=N/A speed=  14x    frame=11245 fps=335 q=-0.0 size=N/A time=00:07:49.01 bitrate=N/A speed=  14x    frame=11421 fps=335 q=-0.0 size=N/A time=00:07:56.35 bitrate=N/A speed=  14x    frame=11616 fps=336 q=-0.0 size=N/A time=00:08:04.48 bitrate=N/A speed=  14x    frame=11802 fps=336 q=-0.0 size=N/A time=00:08:12.24 bitrate=N/A speed=  14x    frame=11985 fps=337 q=-0.0 size=N/A time=00:08:19.87 bitrate=N/A speed=  14x    frame=12182 fps=337 q=-0.0 size=N/A time=00:08:28.09 bitrate=N/A speed=14.1x    frame=12361 fps=337 q=-0.0 size=N/A time=00:08:35.55 bitrate=N/A speed=14.1x    frame=12555 fps=338 q=-0.0 size=N/A time=00:08:43.64 bitrate=N/A speed=14.1x    frame=12742 fps=338 q=-0.0 size=N/A time=00:08:51.44 bitrate=N/A speed=14.1x    frame=12927 fps=339 q=-0.0 size=N/A time=00:08:59.16 bitrate=N/A speed=14.1x    frame=13119 fps=339 q=-0.0 size=N/A time=00:09:07.17 bitrate=N/A speed=14.1x    frame=13299 fps=339 q=-0.0 size=N/A time=00:09:14.67 bitrate=N/A speed=14.2x    frame=13486 fps=339 q=-0.0 size=N/A time=00:09:22.47 bitrate=N/A speed=14.2x    frame=13669 fps=340 q=-0.0 size=N/A time=00:09:30.11 bitrate=N/A speed=14.2x    frame=13855 fps=340 q=-0.0 size=N/A time=00:09:37.86 bitrate=N/A speed=14.2x    frame=14048 fps=340 q=-0.0 size=N/A time=00:09:45.91 bitrate=N/A speed=14.2x    frame=14213 fps=340 q=-0.0 size=N/A time=00:09:52.80 bitrate=N/A speed=14.2x    frame=14401 fps=340 q=-0.0 size=N/A time=00:10:00.64 bitrate=N/A speed=14.2x    frame=14588 fps=341 q=-0.0 size=N/A time=00:10:08.44 bitrate=N/A speed=14.2x    frame=14776 fps=341 q=-0.0 size=N/A time=00:10:16.28 bitrate=N/A speed=14.2x    frame=14959 fps=341 q=-0.0 size=N/A time=00:10:23.91 bitrate=N/A speed=14.2x    frame=15124 fps=341 q=-0.0 size=N/A time=00:10:30.79 bitrate=N/A speed=14.2x    frame=15300 fps=341 q=-0.0 size=N/A time=00:10:38.13 bitrate=N/A speed=14.2x    frame=15475 fps=341 q=-0.0 size=N/A time=00:10:45.43 bitrate=N/A speed=14.2x    frame=15667 fps=341 q=-0.0 size=N/A time=00:10:53.44 bitrate=N/A speed=14.2x    frame=15850 fps=341 q=-0.0 size=N/A time=00:11:01.07 bitrate=N/A speed=14.2x    frame=16040 fps=342 q=-0.0 size=N/A time=00:11:09.00 bitrate=N/A speed=14.2x    frame=16221 fps=342 q=-0.0 size=N/A time=00:11:16.55 bitrate=N/A speed=14.3x    frame=16403 fps=342 q=-0.0 size=N/A time=00:11:24.14 bitrate=N/A speed=14.3x    frame=16580 fps=342 q=-0.0 size=N/A time=00:11:31.52 bitrate=N/A speed=14.3x    frame=16753 fps=342 q=-0.0 size=N/A time=00:11:38.73 bitrate=N/A speed=14.3x    frame=16938 fps=342 q=-0.0 size=N/A time=00:11:46.45 bitrate=N/A speed=14.3x    frame=17124 fps=342 q=-0.0 size=N/A time=00:11:54.21 bitrate=N/A speed=14.3x    frame=17313 fps=342 q=-0.0 size=N/A time=00:12:02.09 bitrate=N/A speed=14.3x    frame=17495 fps=343 q=-0.0 size=N/A time=00:12:09.68 bitrate=N/A speed=14.3x    frame=17663 fps=342 q=-0.0 size=N/A time=00:12:16.69 bitrate=N/A speed=14.3x    frame=17855 fps=343 q=-0.0 size=N/A time=00:12:24.70 bitrate=N/A speed=14.3x    frame=18041 fps=343 q=-0.0 size=N/A time=00:12:32.46 bitrate=N/A speed=14.3x    frame=18208 fps=343 q=-0.0 size=N/A time=00:12:39.42 bitrate=N/A speed=14.3x    frame=18383 fps=343 q=-0.0 size=N/A time=00:12:46.72 bitrate=N/A speed=14.3x    frame=18570 fps=343 q=-0.0 size=N/A time=00:12:54.52 bitrate=N/A speed=14.3x    frame=18753 fps=343 q=-0.0 size=N/A time=00:13:02.15 bitrate=N/A speed=14.3x    frame=18940 fps=343 q=-0.0 size=N/A time=00:13:09.95 bitrate=N/A speed=14.3x    frame=19134 fps=343 q=-0.0 size=N/A time=00:13:18.04 bitrate=N/A speed=14.3x    frame=19321 fps=344 q=-0.0 size=N/A time=00:13:25.84 bitrate=N/A speed=14.3x    frame=19512 fps=344 q=-0.0 size=N/A time=00:13:33.81 bitrate=N/A speed=14.3x    frame=19690 fps=344 q=-0.0 size=N/A time=00:13:41.23 bitrate=N/A speed=14.3x    frame=19886 fps=344 q=-0.0 size=N/A time=00:13:49.41 bitrate=N/A speed=14.4x    frame=20065 fps=344 q=-0.0 size=N/A time=00:13:56.87 bitrate=N/A speed=14.4x    frame=20257 fps=344 q=-0.0 size=N/A time=00:14:04.88 bitrate=N/A speed=14.4x    frame=20445 fps=345 q=-0.0 size=N/A time=00:14:12.72 bitrate=N/A speed=14.4x    frame=20613 fps=344 q=-0.0 size=N/A time=00:14:19.73 bitrate=N/A speed=14.4x    frame=20796 fps=345 q=-0.0 size=N/A time=00:14:27.36 bitrate=N/A speed=14.4x    frame=20987 fps=345 q=-0.0 size=N/A time=00:14:35.33 bitrate=N/A speed=14.4x    frame=21179 fps=345 q=-0.0 size=N/A time=00:14:43.34 bitrate=N/A speed=14.4x    frame=21375 fps=345 q=-0.0 size=N/A time=00:14:51.51 bitrate=N/A speed=14.4x    frame=21562 fps=345 q=-0.0 size=N/A time=00:14:59.31 bitrate=N/A speed=14.4x    frame=21758 fps=346 q=-0.0 size=N/A time=00:15:07.48 bitrate=N/A speed=14.4x    frame=21958 fps=346 q=-0.0 size=N/A time=00:15:15.83 bitrate=N/A speed=14.4x    frame=22147 fps=346 q=-0.0 size=N/A time=00:15:23.71 bitrate=N/A speed=14.4x    frame=22338 fps=346 q=-0.0 size=N/A time=00:15:31.68 bitrate=N/A speed=14.4x    frame=22536 fps=347 q=-0.0 size=N/A time=00:15:39.93 bitrate=N/A speed=14.5x    frame=22713 fps=347 q=-0.0 size=N/A time=00:15:47.32 bitrate=N/A speed=14.5x    frame=22878 fps=346 q=-0.0 size=N/A time=00:15:54.20 bitrate=N/A speed=14.5x    frame=23051 fps=346 q=-0.0 size=N/A time=00:16:01.41 bitrate=N/A speed=14.4x    frame=23234 fps=346 q=-0.0 size=N/A time=00:16:09.05 bitrate=N/A speed=14.5x    frame=23423 fps=347 q=-0.0 size=N/A time=00:16:16.93 bitrate=N/A speed=14.5x    frame=23617 fps=347 q=-0.0 size=N/A time=00:16:25.02 bitrate=N/A speed=14.5x    frame=23807 fps=347 q=-0.0 size=N/A time=00:16:32.95 bitrate=N/A speed=14.5x    frame=23991 fps=347 q=-0.0 size=N/A time=00:16:40.62 bitrate=N/A speed=14.5x    frame=24170 fps=347 q=-0.0 size=N/A time=00:16:48.09 bitrate=N/A speed=14.5x    frame=24362 fps=347 q=-0.0 size=N/A time=00:16:56.09 bitrate=N/A speed=14.5x    frame=24552 fps=347 q=-0.0 size=N/A time=00:17:04.02 bitrate=N/A speed=14.5x    frame=24753 fps=348 q=-0.0 size=N/A time=00:17:12.40 bitrate=N/A speed=14.5x    frame=24935 fps=348 q=-0.0 size=N/A time=00:17:19.99 bitrate=N/A speed=14.5x    frame=25125 fps=348 q=-0.0 size=N/A time=00:17:27.92 bitrate=N/A speed=14.5x    frame=25318 fps=348 q=-0.0 size=N/A time=00:17:35.97 bitrate=N/A speed=14.5x    frame=25503 fps=348 q=-0.0 size=N/A time=00:17:43.68 bitrate=N/A speed=14.5x    frame=25686 fps=348 q=-0.0 size=N/A time=00:17:51.32 bitrate=N/A speed=14.5x    frame=25878 fps=348 q=-0.0 size=N/A time=00:17:59.32 bitrate=N/A speed=14.5x    frame=26065 fps=348 q=-0.0 size=N/A time=00:18:07.12 bitrate=N/A speed=14.5x    frame=26254 fps=349 q=-0.0 size=N/A time=00:18:15.01 bitrate=N/A speed=14.5x    frame=26441 fps=349 q=-0.0 size=N/A time=00:18:22.81 bitrate=N/A speed=14.5x    frame=26620 fps=349 q=-0.0 size=N/A time=00:18:30.27 bitrate=N/A speed=14.5x    frame=26789 fps=349 q=-0.0 size=N/A time=00:18:37.32 bitrate=N/A speed=14.5x    frame=26957 fps=348 q=-0.0 size=N/A time=00:18:44.33 bitrate=N/A speed=14.5x    frame=27134 fps=348 q=-0.0 size=N/A time=00:18:51.71 bitrate=N/A speed=14.5x    frame=27303 fps=348 q=-0.0 size=N/A time=00:18:58.76 bitrate=N/A speed=14.5x    frame=27486 fps=348 q=-0.0 size=N/A time=00:19:06.39 bitrate=N/A speed=14.5x    frame=27659 fps=348 q=-0.0 size=N/A time=00:19:13.61 bitrate=N/A speed=14.5x    frame=27843 fps=348 q=-0.0 size=N/A time=00:19:21.28 bitrate=N/A speed=14.5x    frame=28026 fps=348 q=-0.0 size=N/A time=00:19:28.91 bitrate=N/A speed=14.5x    frame=28207 fps=348 q=-0.0 size=N/A time=00:19:36.46 bitrate=N/A speed=14.5x    frame=28386 fps=348 q=-0.0 size=N/A time=00:19:43.93 bitrate=N/A speed=14.5x    frame=28574 fps=348 q=-0.0 size=N/A time=00:19:51.77 bitrate=N/A speed=14.5x    frame=28744 fps=348 q=-0.0 size=N/A time=00:19:58.86 bitrate=N/A speed=14.5x    frame=28906 fps=348 q=-0.0 size=N/A time=00:20:05.62 bitrate=N/A speed=14.5x    frame=29060 fps=348 q=-0.0 size=N/A time=00:20:12.04 bitrate=N/A speed=14.5x    frame=29227 fps=348 q=-0.0 size=N/A time=00:20:19.00 bitrate=N/A speed=14.5x    frame=29393 fps=347 q=-0.0 size=N/A time=00:20:25.93 bitrate=N/A speed=14.5x    frame=29551 fps=347 q=-0.0 size=N/A time=00:20:32.52 bitrate=N/A speed=14.5x    frame=29710 fps=347 q=-0.0 size=N/A time=00:20:39.15 bitrate=N/A speed=14.5x    frame=29869 fps=347 q=-0.0 size=N/A time=00:20:45.78 bitrate=N/A speed=14.5x    frame=30022 fps=346 q=-0.0 size=N/A time=00:20:52.16 bitrate=N/A speed=14.4x    frame=30201 fps=346 q=-0.0 size=N/A time=00:20:59.63 bitrate=N/A speed=14.4x    frame=30373 fps=346 q=-0.0 size=N/A time=00:21:06.80 bitrate=N/A speed=14.4x    frame=30564 fps=346 q=-0.0 size=N/A time=00:21:14.77 bitrate=N/A speed=14.4x    frame=30747 fps=346 q=-0.0 size=N/A time=00:21:22.40 bitrate=N/A speed=14.5x    frame=30935 fps=347 q=-0.0 size=N/A time=00:21:30.24 bitrate=N/A speed=14.5x    frame=31125 fps=347 q=-0.0 size=N/A time=00:21:38.17 bitrate=N/A speed=14.5x    frame=31300 fps=347 q=-0.0 size=N/A time=00:21:45.47 bitrate=N/A speed=14.5x    frame=31465 fps=347 q=-0.0 size=N/A time=00:21:52.35 bitrate=N/A speed=14.5x    frame=31637 fps=346 q=-0.0 size=N/A time=00:21:59.52 bitrate=N/A speed=14.5x    frame=31817 fps=346 q=-0.0 size=N/A time=00:22:07.03 bitrate=N/A speed=14.4x    frame=31978 fps=346 q=-0.0 size=N/A time=00:22:13.74 bitrate=N/A speed=14.4x    frame=32155 fps=346 q=-0.0 size=N/A time=00:22:21.13 bitrate=N/A speed=14.4x    frame=32339 fps=346 q=-0.0 size=N/A time=00:22:28.80 bitrate=N/A speed=14.4x    frame=32519 fps=346 q=-0.0 size=N/A time=00:22:36.31 bitrate=N/A speed=14.4x    frame=32667 fps=346 q=-0.0 size=N/A time=00:22:42.48 bitrate=N/A speed=14.4x    frame=32817 fps=346 q=-0.0 size=N/A time=00:22:48.74 bitrate=N/A speed=14.4x    frame=32994 fps=346 q=-0.0 size=N/A time=00:22:56.12 bitrate=N/A speed=14.4x    frame=33164 fps=346 q=-0.0 size=N/A time=00:23:03.21 bitrate=N/A speed=14.4x    frame=33331 fps=346 q=-0.0 size=N/A time=00:23:10.18 bitrate=N/A speed=14.4x    frame=33490 fps=345 q=-0.0 size=N/A time=00:23:16.81 bitrate=N/A speed=14.4x    frame=33637 fps=345 q=-0.0 size=N/A time=00:23:22.94 bitrate=N/A speed=14.4x    frame=33764 fps=344 q=-0.0 size=N/A time=00:23:28.24 bitrate=N/A speed=14.4x    frame=33882 fps=344 q=-0.0 size=N/A time=00:23:33.16 bitrate=N/A speed=14.3x    frame=34034 fps=344 q=-0.0 size=N/A time=00:23:39.50 bitrate=N/A speed=14.3x    frame=34182 fps=343 q=-0.0 size=N/A time=00:23:45.67 bitrate=N/A speed=14.3x    frame=34325 fps=343 q=-0.0 size=N/A time=00:23:51.63 bitrate=N/A speed=14.3x    frame=34449 fps=342 q=-0.0 size=N/A time=00:23:56.81 bitrate=N/A speed=14.3x    frame=34614 fps=342 q=-0.0 size=N/A time=00:24:03.69 bitrate=N/A speed=14.3x    [Parsed_psnr_16 @ 000001f868700400] PSNR y:49.077043 u:50.363874 v:50.413446 average:49.471793 min:37.976280 max:inf
[out#0/null @ 000001f85b9edec0] video:14903KiB audio:271276KiB subtitle:0KiB other streams:0KiB global headers:0KiB muxing overhead: unknown
frame=34683 fps=342 q=-0.0 Lsize=N/A time=00:24:06.57 bitrate=N/A speed=14.3x    
